HIERARCHY
ROOT hip
{
  OFFSET 0 0 0
  CHANNELS 6 Xposition Yposition Zposition Zrotation Yrotation Xrotation
  JOINT abdomen
  {
    OFFSET 0 20.6881 -0.73152
    CHANNELS 3 Zrotation Xrotation Yrotation
    JOINT chest
    {
      OFFSET 0 11.7043 -0.48768
      CHANNELS 3 Zrotation Xrotation Yrotation
      JOINT neck
      {
        OFFSET 0 22.1894 -2.19456
        CHANNELS 3 Zrotation Xrotation Yrotation
        JOINT head
        {
          OFFSET -0.24384 7.07133 1.2192
          CHANNELS 3 Zrotation Xrotation Yrotation
          JOINT leftEye
          {
            OFFSET 4.14528 8.04674 8.04672
            CHANNELS 3 Zrotation Xrotation Yrotation
            End Site
            {
              OFFSET 1 0 0
            }
          }
          JOINT rightEye
          {
            OFFSET -3.6576 8.04674 8.04672
            CHANNELS 3 Zrotation Xrotation Yrotation
            End Site
            {
              OFFSET 1 0 0
            }
          }
        }
      }
      JOINT rCollar
      {
        OFFSET -2.68224 19.2634 -4.8768
        CHANNELS 3 Zrotation Xrotation Yrotation
        JOINT rShldr
        {
          OFFSET -8.77824 -1.95073 1.46304
          CHANNELS 3 Zrotation Xrotation Yrotation
          JOINT rForeArm
          {
            OFFSET -28.1742 -1.7115 0.48768
            CHANNELS 3 Zrotation Xrotation Yrotation
            JOINT rHand
            {
              OFFSET -22.5879 0.773209 7.07136
              CHANNELS 3 Zrotation Xrotation Yrotation
              JOINT rThumb1
              {
                OFFSET -1.2192 -0.487915 3.41376
                CHANNELS 3 Zrotation Xrotation Yrotation
                JOINT rThumb2
                {
                  OFFSET -3.37035 -0.52449 3.41376
                  CHANNELS 3 Zrotation Xrotation Yrotation
                  End Site
                  {
                    OFFSET -1.78271 -1.18214 1.43049
                  }
                }
              }
              JOINT rIndex1
              {
                OFFSET -7.75947 0.938293 5.60832
                CHANNELS 3 Zrotation Xrotation Yrotation
                JOINT rIndex2
                {
                  OFFSET -2.54057 -0.884171 1.56538
                  CHANNELS 3 Zrotation Xrotation Yrotation
                  End Site
                  {
                    OFFSET -1.62519 -0.234802 1.16502
                  }
                }
              }
              JOINT rMid1
              {
                OFFSET -8.24714 1.18213 3.41376
                CHANNELS 3 Zrotation Xrotation Yrotation
                JOINT rMid2
                {
                  OFFSET -3.10165 -0.590103 1.0647
                  CHANNELS 3 Zrotation Xrotation Yrotation
                  End Site
                  {
                    OFFSET -2.48547 -0.328903 0.83742
                  }
                }
              }
              JOINT rRing1
              {
                OFFSET -8.82822 0.546677 1.51678
                CHANNELS 3 Zrotation Xrotation Yrotation
                JOINT rRing2
                {
                  OFFSET -2.60934 -0.819778 -0.0198488
                  CHANNELS 3 Zrotation Xrotation Yrotation
                  End Site
                  {
                    OFFSET -2.33842 -0.294052 0.168128
                  }
                }
              }
              JOINT rPinky1
              {
                OFFSET -8.27202 -0.0477905 -0.4584
                CHANNELS 3 Zrotation Xrotation Yrotation
                JOINT rPinky2
                {
                  OFFSET -1.82734 -0.647385 -0.700984
                  CHANNELS 3 Zrotation Xrotation Yrotation
                  End Site
                  {
                    OFFSET -1.69225 -0.51767 -0.607171
                  }
                }
              }
            }
          }
        }
      }
      JOINT lCollar
      {
        OFFSET 2.68224 19.2634 -4.8768
        CHANNELS 3 Zrotation Xrotation Yrotation
        JOINT lShldr
        {
          OFFSET 8.77824 -1.95073 1.46304
          CHANNELS 3 Zrotation Xrotation Yrotation
          JOINT lForeArm
          {
            OFFSET 28.1742 -1.7115 0.48768
            CHANNELS 3 Zrotation Xrotation Yrotation
            JOINT lHand
            {
              OFFSET 22.5879 0.773209 7.07136
              CHANNELS 3 Zrotation Xrotation Yrotation
              JOINT lThumb1
              {
                OFFSET 1.2192 -0.487915 3.41376
                CHANNELS 3 Zrotation Xrotation Yrotation
                JOINT lThumb2
                {
                  OFFSET 3.37035 -0.52449 3.41376
                  CHANNELS 3 Zrotation Xrotation Yrotation
                  End Site
                  {
                    OFFSET 1.78271 -1.18214 1.43049
                  }
                }
              }
              JOINT lIndex1
              {
                OFFSET 7.75947 0.938293 5.60832
                CHANNELS 3 Zrotation Xrotation Yrotation
                JOINT lIndex2
                {
                  OFFSET 2.54057 -0.884171 1.56538
                  CHANNELS 3 Zrotation Xrotation Yrotation
                  End Site
                  {
                    OFFSET 1.62519 -0.234802 1.16502
                  }
                }
              }
              JOINT lMid1
              {
                OFFSET 8.24714 1.18213 3.41376
                CHANNELS 3 Zrotation Xrotation Yrotation
                JOINT lMid2
                {
                  OFFSET 3.10165 -0.590103 1.0647
                  CHANNELS 3 Zrotation Xrotation Yrotation
                  End Site
                  {
                    OFFSET 2.48547 -0.328903 0.83742
                  }
                }
              }
              JOINT lRing1
              {
                OFFSET 8.82822 0.546677 1.51678
                CHANNELS 3 Zrotation Xrotation Yrotation
                JOINT lRing2
                {
                  OFFSET 2.60934 -0.819778 -0.0198488
                  CHANNELS 3 Zrotation Xrotation Yrotation
                  End Site
                  {
                    OFFSET 2.33842 -0.294052 0.168128
                  }
                }
              }
              JOINT lPinky1
              {
                OFFSET 8.27202 -0.0477905 -0.4584
                CHANNELS 3 Zrotation Xrotation Yrotation
                JOINT lPinky2
                {
                  OFFSET 1.82734 -0.647385 -0.700984
                  CHANNELS 3 Zrotation Xrotation Yrotation
                  End Site
                  {
                    OFFSET 1.69225 -0.51767 -0.607171
                  }
                }
              }
            }
          }
        }
      }
    }
  }
  JOINT rButtock
  {
    OFFSET -8.77824 4.35084 1.2192
    CHANNELS 3 Zrotation Xrotation Yrotation
    JOINT rThigh
    {
      OFFSET 0 -1.70687 -2.19456
      CHANNELS 3 Zrotation Xrotation Yrotation
      JOINT rShin
      {
        OFFSET 0 -36.8199 0.73152
        CHANNELS 3 Zrotation Xrotation Yrotation
        JOINT rFoot
        {
          OFFSET 0.73152 -45.1104 -5.12064
          CHANNELS 3 Zrotation Xrotation Yrotation
          End Site
          {
            OFFSET -1.1221 -3.69964 12.103
          }
        }
      }
    }
  }
  JOINT lButtock
  {
    OFFSET 8.77824 4.35084 1.2192
    CHANNELS 3 Zrotation Xrotation Yrotation
    JOINT lThigh
    {
      OFFSET 0 -1.70687 -2.19456
      CHANNELS 3 Zrotation Xrotation Yrotation
      JOINT lShin
      {
        OFFSET 0 -36.8199 0.73152
        CHANNELS 3 Zrotation Xrotation Yrotation
        JOINT lFoot
        {
          OFFSET -0.73152 -45.1104 -5.12064
          CHANNELS 3 Zrotation Xrotation Yrotation
          End Site
          {
            OFFSET 1.1221 -3.69964 12.103
          }
        }
      }
    }
  }
}
MOTION
Frames:	4
Frame Time:	0.00833333
89.9041 80.5957 4.20629 318.027 76.8696 317.315 5.88144 16.4112 13.3559 -2.94183 -0.24692 4.20633 3.11102 -7.60763 -1.11471 -0.666134 12.4709 -2.60081 -0.0 0.0 0.0 -0.0 0.0 0.0 -1.49953e-13 -1.6572e-12 3.32689e-14 51.3944 55.2493 28.6842 -27.9673 -30.4475 68.0241 -0.305769 -15.5447 -2.24046 6.88388e-10 3.41329e-09 5.10024e-09 1.12021e-09 5.95522e-09 8.82813e-09 6.88388e-10 3.4133e-09 5.10023e-09 7.73091 5.47488 0.417314 6.88383e-10 3.4133e-09 5.10024e-09 2.90554 0.965183 0.102902 6.88389e-10 3.41329e-09 5.10024e-09 10.2786 0.731801 0.0259123 6.88383e-10 3.41329e-09 5.10025e-09 2.22167 -0.733487 -0.20892 -1.49979e-13 -1.6572e-12 3.29567e-14 -93.7883 41.632 35.6173 19.3942 -12.2686 -37.2288 0.580184 -21.1464 3.11557 -5.88703e-10 3.82942e-10 1.73371e-09 -1.04051e-09 6.69383e-10 2.99685e-09 -5.88708e-10 3.82944e-10 1.73372e-09 -7.73091 5.47488 -0.417314 -5.88698e-10 3.82941e-10 1.7337e-09 -2.90554 0.965183 -0.102902 -5.88709e-10 3.82947e-10 1.73372e-09 -10.2786 0.731801 -0.0259123 -5.88698e-10 3.82949e-10 1.73371e-09 -2.22167 -0.733487 0.20892 -2.03217e-16 0.0 -3.88251e-19 8.47931 17.4956 1.26012 0.0951263 21.3797 1.12693 0.900566 -23.2028 3.35287 2.03217e-16 0.0 3.88251e-19 20.984 -33.9301 10.6753 0.245574 36.138 -0.88318 1.83259 -7.91291 5.51182
91.4706 80.4232 4.16579 316.944 76.8708 316.338 5.48063 16.1853 12.8729 -3.08015 -0.337279 4.04256 3.2203 -7.40485 -1.0406 -0.13614 12.142 -2.55018 -0.0 0.0 0.0 -0.0 0.0 0.0 -6.99887e-14 -1.92054e-12 -9.38543e-14 52.466 55.9795 27.7451 -28.0479 -30.9257 68.7748 -0.322405 -15.9431 -2.30101 6.07102e-10 3.96613e-09 5.58105e-09 9.73911e-10 6.91148e-09 9.65804e-09 6.07102e-10 3.96613e-09 5.58104e-09 7.73091 5.47488 0.417314 6.07094e-10 3.96614e-09 5.58105e-09 2.90554 0.965183 0.102902 6.07104e-10 3.96613e-09 5.58104e-09 10.2786 0.731801 0.0259123 6.07099e-10 3.96613e-09 5.58105e-09 2.22167 -0.733487 -0.20892 -7.001e-14 -1.92054e-12 -9.40966e-14 -93.2381 41.4295 34.9669 19.2478 -12.0942 -36.8836 0.628068 -21.962 3.24795 -1.16583e-09 4.74692e-10 1.9287e-09 -2.04077e-09 8.24301e-10 3.32333e-09 -1.16583e-09 4.74693e-10 1.92871e-09 -7.73091 5.47488 -0.417314 -1.16582e-09 4.74689e-10 1.92868e-09 -2.90554 0.965183 -0.102902 -1.16583e-09 4.74695e-10 1.9287e-09 -10.2786 0.731801 -0.0259123 -1.16582e-09 4.74696e-10 1.9287e-09 -2.22167 -0.733487 0.20892 -2.03217e-16 0.0 -3.88251e-19 8.26525 16.987 1.60216 0.070865 23.9549 1.14207 0.807718 -21.7751 3.34583 2.03217e-16 0.0 3.88251e-19 20.23 -33.5402 10.4481 0.255344 36.5213 -0.861044 1.83976 -6.94193 5.96036
93.0275 80.2501 3.93055 317.362 77.5367 316.799 4.88625 15.9364 12.3585 -3.21088 -0.395122 3.86163 3.33468 -7.2089 -0.965915 0.41146 11.7391 -2.50716 -0.0 0.0 0.0 -0.0 0.0 0.0 1.01884e-14 -2.14086e-12 -2.25076e-13 53.9351 56.6385 26.4441 -28.1068 -31.2918 69.3228 -0.341816 -16.3968 -2.37024 4.88386e-10 4.41029e-09 5.93306e-09 7.64819e-10 7.67801e-09 1.02647e-08 4.88386e-10 4.41029e-09 5.93305e-09 7.73091 5.47488 0.417314 4.88375e-10 4.4103e-09 5.93307e-09 2.90554 0.965183 0.102902 4.88388e-10 4.41029e-09 5.93305e-09 10.2786 0.731801 0.0259123 4.88384e-10 4.41029e-09 5.93306e-09 2.22167 -0.733487 -0.20892 1.0169e-14 -2.14085e-12 -2.25251e-13 -92.5528 41.3435 34.055 19.0993 -11.9194 -36.5355 0.682114 -22.81 3.38791 -1.74861e-09 5.41336e-10 2.07199e-09 -3.04993e-09 9.35406e-10 3.56021e-09 -1.74861e-09 5.41336e-10 2.07201e-09 -7.73091 5.47488 -0.417314 -1.74861e-09 5.41333e-10 2.07198e-09 -2.90554 0.965183 -0.102902 -1.74861e-09 5.41338e-10 2.072e-09 -10.2786 0.731801 -0.0259123 -1.7486e-09 5.41339e-10 2.07199e-09 -2.22167 -0.733487 0.20892 -2.03217e-16 0.0 -3.88251e-19 7.83004 16.1486 1.78135 0.035639 26.8162 1.15697 0.735009 -19.7394 3.49313 2.03217e-16 0.0 3.88251e-19 19.1751 -33.1184 10.1209 0.263246 36.7722 -0.834424 1.84808 -6.0371 6.45924
94.5651 80.1442 3.53921 321.02 78.6539 320.337 3.95601 15.8243 11.8772 -3.27726 -0.374658 3.68387 3.41553 -7.11946 -0.88321 0.856151 11.3386 -2.43456 -0.0 0.0 0.0 -0.0 0.0 0.0 5.5672e-14 -2.15563e-12 -2.90126e-13 55.4808 57.1898 24.9382 -28.1378 -31.5088 69.6635 -0.363922 -16.9069 -2.44831 3.92334e-10 4.40168e-09 5.79623e-09 6.00856e-10 7.65911e-09 1.00265e-08 3.92334e-10 4.40168e-09 5.79622e-09 7.73091 5.47488 0.417314 3.92322e-10 4.40169e-09 5.79625e-09 2.90554 0.965183 0.102902 3.92337e-10 4.40168e-09 5.79623e-09 10.2786 0.731801 0.0259123 3.92334e-10 4.40168e-09 5.79623e-09 2.22167 -0.733487 -0.20892 5.56511e-14 -2.15562e-12 -2.90275e-13 -91.6666 41.4532 32.7424 18.9491 -11.7447 -36.1858 0.725686 -23.4512 3.4953 -1.97331e-09 5.20175e-10 2.02664e-09 -3.43746e-09 8.96328e-10 3.47683e-09 -1.97332e-09 5.20175e-10 2.02665e-09 -7.73091 5.47488 -0.417314 -1.97331e-09 5.20172e-10 2.02663e-09 -2.90554 0.965183 -0.102902 -1.97332e-09 5.20175e-10 2.02664e-09 -10.2786 0.731801 -0.0259123 -1.97331e-09 5.20176e-10 2.02663e-09 -2.22167 -0.733487 0.20892 -2.03217e-16 0.0 -3.88251e-19 7.02298 15.0182 1.89388 -0.0119377 29.8566 1.17142 0.581803 -16.9059 3.56065 2.03217e-16 0.0 3.88251e-19 17.6093 -32.5191 9.529 0.269316 36.9452 -0.807282 1.88012 -5.61769 6.87318
